<?xml version="1.0" encoding="UTF-8"?>
<svg id="Layer_1" xmlns="http://www.w3.org/2000/svg" version="1.1" viewBox="0 0 612 792">
  <!-- Generator: Adobe Illustrator 29.8.1, SVG Export Plug-In . SVG Version: 2.1.1 Build 2)  -->
  <defs>
    <style>
      .st0, .st1 {
        fill: #fff;
      }

      .st0, .st2 {
        stroke: #fff;
        stroke-miterlimit: 10;
        stroke-width: 3px;
      }
    </style>
  </defs>
  <g id="Layer_5">
    <rect width="612" height="792"/>
  </g>
  <g id="Layer_2">
    <path class="st2" d="M566.2,159.64c4.39,5.77,6.86,8.8,1.36,14.76,0,0-205.21,182.71-202.79,183.36,0,0-4.34,5.02.1,9.36s47.31,53.22,47.31,53.22c-36.84,38.26-195.78,173.88-291.21,216.23h0l-79.23-139.29s-13.97-24.86,12.88-34.84,217.99-82.24,276.51-142.52c66.32-65.19,112.52-109.19,189.23-183.57,0,0,10.49-13.46,18.85-4.67l26.99,27.95Z"/>
    <path class="st0" d="M120.97,636.57l13.48,24.02c41.89-2.38,300.01-197.8,295.54-220.08l-17.82-20.17-291.21,216.23h.01Z"/>
  </g>
  <g id="Layer_3">
    <path class="st1" d="M77.42,482.66s-15.44,11.91-4.37,24.43c11.81,13.35,23.46,1.54,23.46,1.54,0,0,11.16-9.38,1.86-22-7.29-9.89-17.8-5.94-20.95-3.96h0Z"/>
  </g>
  <path class="st0" d="M544.04,165.04c0,5.08-2.71,8.34-8.34,8.34-5.93,0-8.34-2.85-8.34-8.34,0-4.61,3.73-8.34,8.34-8.34,5.5,0,8.34,4.57,8.34,8.34Z"/>
</svg>