<?xml version="1.0" encoding="UTF-8"?>
<svg id="Layer_2" xmlns="http://www.w3.org/2000/svg" version="1.1" viewBox="0 0 792 612">
  <!-- Generator: Adobe Illustrator 29.8.1, SVG Export Plug-In . SVG Version: 2.1.1 Build 2)  -->
  <defs>
    <style>
      .st0 {
        fill: #ec2027;
      }

      .st0, .st1 {
        stroke: #000;
        stroke-miterlimit: 10;
      }

      .st1 {
        fill: #fff;
      }
    </style>
  </defs>
  <path class="st1" d="M442.42,79.56s19.91,47.65,25.42,102.24c5.58,55.23-3.58,117.56-62.98,144.85-5.63,21.32-10.39,169.8,5.43,184.48,0,0,6.68,15.03,51.76,22.96l.05,8h-140.64s.05-8,.05-8c45.08-7.93,51.76-22.96,51.76-22.96,15.81-14.69,11.06-163.17,5.43-184.48-59.4-27.29-68.56-89.62-62.98-144.85s25.42-102.24,25.42-102.24h101.32Z"/>
  <path class="st0" d="M315.69,181.81c82.61-23.65,68.32,33,152.15,0,0,0,16.94,111.23-62.98,144.85l-6.29,4.59c-3.86,8.07-9.34,7.33-13.59,0l-6.31-4.6c-40.44-17.1-71.73-62.49-62.98-144.85Z"/>
</svg>