<?xml version="1.0" encoding="UTF-8"?>
<svg id="Layer_1" xmlns="http://www.w3.org/2000/svg" version="1.1" viewBox="0 0 612 599.94">
  <!-- Generator: Adobe Illustrator 29.8.1, SVG Export Plug-In . SVG Version: 2.1.1 Build 2)  -->
  <defs>
    <style>
      .st0, .st1, .st2, .st3 {
        fill: none;
      }

      .st4 {
        fill: #171048;
      }

      .st1, .st5, .st2 {
        stroke-miterlimit: 10;
      }

      .st1, .st5, .st2, .st3 {
        stroke: #712b89;
        stroke-width: 8px;
      }

      .st6 {
        fill: #712b89;
      }

      .st2, .st3 {
        stroke-linecap: round;
      }

      .st3 {
        stroke-linejoin: round;
      }
    </style>
  </defs>
  <g id="Layer_2">
    <path class="st4" d="M142.16,48.88s-9.33,117.96,61.01,160.21c0,0-14.52,178.88,61.92,184.11,0,0-73.04,181.97-61.67,202.32l208.46,3.32s-16.08-212.23-66.76-215.91c0,0,47.1-108.73,14.49-136.73,0,0,29.02-72.15,13.32-84.09s-100.95-97.4-96.11-107.28,0,57.21,0,57.21c-9.36,17.32-30.34,24.37-63.49,20.65-29.97-14.34-53.55-42.58-71.17-83.82h0Z"/>
  </g>
  <g id="Layer_11" data-name="Layer_1">
    <g id="Layer_21">
      <g>
        <path class="st6" d="M229.15,457.18l.03.12c.1.04.19.08.29.12.42.09.58.11-.31-.24h0Z"/>
        <path class="st6" d="M166.58,448.86"/>
        <path class="st6" d="M193.66,361.24"/>
        <line class="st0" x1="488.46" y1="332.88" x2="476.89" y2="439.74"/>
      </g>
      <path class="st1" d="M301.42,93.12c34.89,1.67,164.8,12.24,187.03,239.76,5.15,48.05-1.22,70.04-10.18,86.17-1.02,1.83-1.45,3.92-1.23,6,22.67,213.4-53.79,159.19-53.79,159.19-.81,5.18-.15,15.7-.15,15.7h-13.59"/>
      <path class="st1" d="M212.26,130.97c17.78-19.26,41.03-35.94,69.72-37.85"/>
      <path class="st1" d="M182.87,188.95c10.51,9.74,16.61,14.6,19.89,16.6,2.14,1.31,3.01,3.95,2.08,6.28-12.95,91.8,5.85,158.52,56.7,175.67,3.66,1.23,5.76,5.02,4.85,8.77-11.2,45.92-48.5,114.07-48.4,121.02"/>
      <path class="st2" d="M307.45,229.51c-3.49,3.82-21.49-32.26-29.23-48.3-1.72-3.57-6.5-4.3-9.21-1.41l-22.11,23.58c-.26.28-.72.23-.9-.1-8.39-14.92-2.71-38.49-2.29-51.2.12-3.51-2.07-6.65-5.36-7.86-62.3-22.99-96.18-95.35-96.18-95.35-.28-3.27-16.33,83.4,40.72,140.08,0,0-58.14,78.96,6.75,158.07,2.45,2.99,3.06,7.09,1.6,10.67-11.38,27.97-54.57,146.76,26.76,159.6,0,0-22.79,79.75-9.71,82.65h201.24c7.21-110.74-47.96-194.93-61.61-213.94-1.84-2.55-2.22-5.88-1.02-8.78,28.61-69.07,24.14-107.69,13.73-124.8-1.13-1.86-1.5-4.09-1.02-6.22,12.33-27.1,20.67-52.8,19.24-75.09-.17-2.7-2.01-4.98-4.62-5.69-47.17-12.86-92.08-106.22-96.56-115.76-.08-.17-.33-.1-.32.08.75,12.54,7.18,152.31,60.97,152.59"/>
      <path class="st1" d="M264.04,343.41"/>
      <path class="st5" d="M142.16,48.88"/>
      <path class="st1" d="M322.84,199.81s2.89,9.85-15.39,29.7"/>
      <line class="st2" x1="257.1" y1="254.45" x2="257.1" y2="295.72"/>
      <line class="st2" x1="289.04" y1="258.65" x2="289.04" y2="299.93"/>
      <path class="st3" d="M261.09,331.61c11.96,2.82,34.5-.35,44.91-7.25"/>
    </g>
    <g id="Layer_4">
      <polygon class="st6" points="216.06 518.67 265.09 397.64 259.48 387.55 229.26 371.86 214.66 347.35 201.22 287.71 203.17 209.09 178.24 191.72 157.23 258.12 162.55 300.98 180.2 329.28 189.44 345.81 193.12 356.74 167.59 444.98 182.33 501.86 216.06 518.67"/>
      <path class="st6" d="M213.21,131.93l34.19-27.17s.1-.07.16-.08l32.65-8.87c.24-.06.48.07.55.31l25.69,89.82c.03.1.09.19.18.25,0,0,26.55,17.93,29.48,14.66s3.69,3.25,2.52,3.08c-16.14-2.38-19.33,4.81-34,24.07-.68.89-.58.16-.72-.1l-24.3-46.04c-.06-.11-.15-.19-.27-.22l-7.42-2.19c-.15-.04-.31,0-.43.1l-24.72,22.9c-.27.25-.72.08-.75-.29l-3.37-41.62v-.1l2.08-14.71c.03-.2-.08-.4-.27-.48l-31.13-12.55c-.32-.13-.38-.55-.11-.76h-.01Z"/>
      <path class="st6" d="M487.48,334.88c3.61,32.21-2.69,60.13-12.09,86.71,0,0,34.09,189.2-52.95,164.92l-3.36,12.33h-9.45s-15.2-173.7-64.51-215.91l25.4-79.94-9.71-52.3,19.05-82.93c-3.73-2.48-56.13-23.2-77.61-72.7,33.74-6.27,160.16,17.38,185.24,238.63v1.19h0Z"/>
    </g>
  </g>
</svg>